<svg width="1000" height="1000" viewBox="10 10 250 200" style="background-color:" xmlns="http://www.w3.org/2000/svg" xmlns:svg="http://www.w3.org/2000/svg">

    <polygon 
        style="stroke:yellow; stroke-width:1" 
        points="122,171 126,180 130,178 130,166 127,170">
    </polygon>

    <polygon 
        style="stroke:yellow; stroke-width:1"
        points="79,174 103,174 107,170 110,174 127,170 137,157 153,143 151,139 130,120 91,162 72,170">
    </polygon>

    <polygon 
        style="stroke:yellow; stroke-width:1" 
        points="215,78 220,84 244,82">
    </polygon>

    <polygon 
        style="stroke:yellow; stroke-width:1" 
        points="215,78 173,75 178,79 172,82 220,84">
    </polygon>

    <polygon 
        style="stroke:yellow; stroke-width:1" 
        points="216,72 211,78 247,83 216,72">
    </polygon>

    <polygon 
        style="stroke:yellow; stroke-width:1" 
        points="216,72 189,66 180,62 188,68 167,75 211,78">
    </polygon>

    <polygon 
        style="stroke:yellow; stroke-width:1" 
        points="188,68 178,60 167,62">
    </polygon>

    <polygon 
        style="stroke:yellow; stroke-width:1" 
        points="167,62 125,41 178,60">
    </polygon>

    <polygon 
        style="stroke:yellow; stroke-width:1" 
        points="167,62 171,67 167,70 188,68">
    </polygon>

    <polygon 
        style="stroke:yellow; stroke-width:1" 
        points="167,70 161,67 167,75 188,68">
    </polygon>

    <polygon 
        style="stroke:yellow; stroke-width:1" 
        points="167,62 162,63 161,67 147,65 153,55">
    </polygon>

    <polygon 
        style="stroke:yellow; stroke-width:1" 
        points="121,70 115,81 135,82">
    </polygon>

    <polygon 
        style="stroke:yellow; stroke-width:1" 
        points="130,60 119,70 135,82 ">
    </polygon>

    <polygon 
        style="stroke:yellow; stroke-width:1" 
        points="135,82 125,60 147,65">
    </polygon>

    <polygon 
        style="stroke:yellow; stroke-width:1" 
        points="147,65 128,58 121,60 125,61 119,66">
    </polygon>

    <polygon 
        style="stroke:yellow; stroke-width:1" 
        points="147,65 126,51 117,48 126,55 116,54">
    </polygon>

    <polygon 
        style="stroke:yellow; stroke-width:1" 
        points="147,65 126,51 119,41 126,44 125,41 153,55">
    </polygon>

    <polygon 
        style="stroke:yellow; stroke-width:1" 
        points="147,65 149,79 149,79 168,75 161,67">
    </polygon>

    <polygon 
        style="stroke:yellow; stroke-width:1" 
        points="149,79 172,82 178,79 174,75 168,75">
    </polygon>

    <polygon 
        style="stroke:yellow; stroke-width:1" 
        points="149,79 135,82 147,65">
    </polygon>

    <polygon 
        style="stroke:yellow; stroke-width:1" 
        points="116,86 117,99 135,82">
    </polygon>

    <polygon 
        style="stroke:yellow; stroke-width:1" 
        points="117,81 114,87 135,82">
    </polygon>

    <polygon 
        style="stroke:yellow; stroke-width:1" 
        points="157,135 153,143 150,136 154,129">
    </polygon>

    <polygon 
        style="stroke:yellow; stroke-width:1" 
        points="158,115 154,129 158,138 163,120">
    </polygon>

    <polygon 
        style="stroke:yellow; stroke-width:1" 
        points="150,127 144,138 144,144 151,140 154,128 150,127 150,127">
    </polygon>

    <polygon 
        style="stroke:yellow; stroke-width:1" 
        points="153,110 150,125 151,130 157,128 160,110">
    </polygon>

    <polygon 
        style="stroke:yellow; stroke-width:1" 
        points="137,125 131,131 133,138 137,137 144,125">
    </polygon>

    <polygon 
        style="stroke:yellow; stroke-width:1" 
        points="142,115 137,122 137,128 145,125 147,114">
    </polygon>

    <polygon 
        style="stroke:yellow; stroke-width:1" 
        points="136,135 138,141 144,139 151,126 145,124">
    </polygon>

    <polygon 
        style="stroke:yellow; stroke-width:1" 
        points="148,100 144,120 145,130 153,125 154,115">
    </polygon>

    <polygon 
        style="stroke:yellow; stroke-width:1" 
        points="165,102 166,114 163,123 157,114 158,102">
    </polygon>

    <polygon 
        style="stroke:yellow; stroke-width:1" 
        points="154,99 150,110 152,116 159,113 159,99">
    </polygon>

    <polygon 
        style="stroke:yellow; stroke-width:1"
        points="157,90 154,99 161,105 166,103 165,94 160,88">
    </polygon>

    <polygon 
        style="stroke:yellow; stroke-width:1" 
        points="73,170 81,170 91,162 88,150 80,150 62,167">
    </polygon>

    <polygon 
        style="stroke:yellow; stroke-width:1"
        points="126,138 118,153 101,163 101,159 91,162 88,155 114,131">
    </polygon>

    <polygon 
        style="stroke:yellow; stroke-width:1" 
        points="121,140 127,138 135,120 128,115 121,133">
    </polygon>

    <polygon 
        style="stroke:yellow; stroke-width:1"
        points="138,114 130,123 131,126 135,127 137,125 137,122 142,115">
    </polygon>

    <polygon 
        style="stroke:yellow; stroke-width:1" 
        points="132,108 128,114 129,120 133,120 145,107">
    </polygon>

    <polygon 
        style="stroke:yellow; stroke-width:1" 
        points="137,105 138,116 147,115 151,105">
    </polygon>

    <polygon 
        style="stroke:yellow; stroke-width:1" 
        points="141,96 142,105 145,110 152,108 155,95">
    </polygon>

    <polygon 
        style="stroke:yellow; stroke-width:1" 
        points="147,98 149,102 156,98 158,89">
    </polygon>

    <polygon 
        style="stroke:yellow; stroke-width:1"
        
        points="117,99 116,103 129,100 133,91 140,99 147,91 147,98 160,88 165,94 169,87 192,83 149,79 135,82">
    </polygon>

    <polygon 
        style="stroke:yellow; stroke-width:1" 
        points="140,99 143,102 148,98 147,91">
    </polygon>

    <polygon 
        style="stroke:yellow; stroke-width:1" 
        points="95,119 72,145 96,124">
    </polygon>

    <polygon 
        style="stroke:yellow; stroke-width:1" 
        points="108,108 94,118 96,126 104,122 114,110">
    </polygon>

    <polygon 
        style="stroke:yellow; stroke-width:1" 
        points="119,109 109,124 104,128 102,123 104,122 114,110 119,109">
    </polygon>

    <polygon 
        style="stroke:yellow; stroke-width:1"
        points="113,132 87,156 80,159 81,153 103,126 104,127 107,125 110,133">
    </polygon>


    <polygon 
        style="stroke:yellow; stroke-width:1" 
        points="114,131 115,137 121,135 135,100 126,100">
    </polygon>

    <polygon 
        style="stroke:yellow; stroke-width:1" 
        points="126,105 116,130 110,134 107,125 109,124 119,108 126,105">
    </polygon>

    <polygon 
        style="stroke:yellow; stroke-width:1" 
        points="116,102 103,110 110,112 130,104 128,99">
    </polygon>

    <polygon 
        style="stroke:yellow; stroke-width:1" 
        points="133,109 142,106 142,101 133,91 126,100">
    </polygon>

    <polygon 
        style="stroke:yellow; stroke-width:1" 
        points="162,63 161,67 167,70 171,67 167,62">
    </polygon>

    <polygon 
        style="stroke:yellow; stroke-width:1" 
        points="26,96 27,90 32,92 65,130 55,130">
    </polygon>

    <polygon 
        style="stroke:yellow; stroke-width:1" 
        points="79,137 55,125 72,145">
    </polygon>

    <polygon 
        style="stroke:yellow; stroke-width:1" 
        points="22,100 49,129 24,92">
    </polygon>

    <polygon 
        style="stroke:yellow; stroke-width:1" 
        points="23,90 24,97 49,129 57,124 27,92">
    </polygon>

    <polygon 
        style="stroke:yellow; stroke-width:1" 
        points="50,131 54,146 63,159 57,160 62,164 67,154">
    </polygon>

    <polygon 
        style="stroke:yellow; stroke-width:1"
        points="57,143 47,129,49 121,57 124,72 145,67 153,120">
    </polygon>

    <polygon 
        style="stroke:yellow; stroke-width:1"
        
        points="74,153 75,156 81,153 103,126 102,123 100,124">
    </polygon>

    <polygon 
        style="stroke:yellow; stroke-width:1" 
        points="75,156 60,169 61,164 72,145 74,153">
    </polygon>

    <polygon 
        style="stroke:yellow; stroke-width:1" 
        points="72,143 72,154 76,153 100,124 96,124">
    </polygon>

    <polygon 
        style="stroke:yellow; stroke-width:1" 
        points="62,181 79,174 72,170 62,175">
    </polygon>

    <polygon 
        style="stroke:yellow; stroke-width:1" 
        points="62,167 49,184 73,170">
    </polygon>

    <polygon 
        style="stroke:yellow; stroke-width:1"
        points="103,174 107,169 110,174 116,183 105,188 110,184">
    </polygon>

    <polygon 
        style="stroke:yellow; stroke-width:1" 
        points="116,183 126,188 110,186">
    </polygon>

    <polygon 
        style="stroke:yellow; stroke-width:1"     
        points="110,186 129,188 136,187 140,191 135,189 129,191">
    </polygon>

    <polygon 
        style="stroke:yellow; stroke-width:1" 
        points="126,180 130,185 136,182 130,177">
    </polygon>

    <polygon 
        style="stroke:yellow; stroke-width:1" 
        points="130,185 140,186 143,190 143,186 136,182">
    </polygon>

    <polygon 
        style="stroke:yellow; stroke-width:1"
        points="136,182 146,185 152,184 153,190 150,187 143,187 143,186">
    </polygon>

</svg>